<svg height="30" viewBox="0 0 196 56" fill="none" xmlns="http://www.w3.org/2000/svg"><path d="M65 43h3.6V28c0-6.06 5.22-11.4 11.4-11.4 6.3 0 11.4 5.1 11.4 11.4v15H95V28c0-8.28-6.72-15-15-15-4.56 0-8.64 2.04-11.4 5.28V13H65v30zm35.977-15c0 8.28 6.72 15 15 15 8.28 0 15-6.72 15-15 0-8.28-6.72-15-15-15-8.28 0-15 6.72-15 15zm3.6 0c0-6.3 5.1-11.4 11.4-11.4 6.3 0 11.4 5.1 11.4 11.4 0 6.3-5.1 11.4-11.4 11.4-6.3 0-11.4-5.1-11.4-11.4zm31.997-15h-3.84l13.32 30h3.9l13.32-30h-3.9l-11.4 25.62-11.4-25.62zm54.904 30h3.6V28c0-8.28-6.72-15-15-15-8.28 0-15 6.72-15 15 0 8.28 6.72 15 15 15 4.56 0 8.64-2.04 11.4-5.22V43zm-22.8-15c0-6.3 5.1-11.4 11.4-11.4 6.3 0 11.4 5.1 11.4 11.4 0 6.6-5.28 11.4-11.4 11.4-6.3 0-11.4-5.1-11.4-11.4z" fill="#fff"/><path d="M46.394 37.845c9.14-18.448-8.293-28.603-13.37-29.703 2.877 2.877 9.647 10.07 4.654 20.986l8.716 8.717z" fill="url(#paint0_angular)"/><path d="M10.595 18.298C1.455 36.746 18.888 46.9 23.965 48c-2.876-2.877-9.46-9.986-4.468-20.902l-8.902-8.801z" fill="url(#paint1_angular)"/><g filter="url(#filter0_d)"><path fill-rule="evenodd" clip-rule="evenodd" d="M18.796 10.11c-3.482 1.893-6.32 4.697-8.198 8.185l27.667 27.583.004.008c3.414-1.863 6.26-4.615 8.135-8.022L18.86 10.23l-.064-.119z" fill="#fff"/></g><defs><filter id="filter0_d" x=".598" y=".11" width="55.806" height="55.775" filterUnits="userSpaceOnUse" color-interpolation-filters="sRGB"><feFlood flood-opacity="0" result="BackgroundImageFix"/><feColorMatrix in="SourceAlpha" values="0 0 0 0 0 0 0 0 0 0 0 0 0 0 0 0 0 0 127 0"/><feOffset/><feGaussianBlur stdDeviation="5"/><feColorMatrix values="0 0 0 0 0 0 0 0 0 0 0 0 0 0 0 0 0 0 0.15 0"/><feBlend in2="BackgroundImageFix" result="effect1_dropShadow"/><feBlend in="SourceGraphic" in2="effect1_dropShadow" result="shape"/></filter><radialGradient id="paint0_angular" cx="0" cy="0" r="1" gradientUnits="userSpaceOnUse" gradientTransform="rotate(45.277 -16.076 59.754) scale(12.3867 11.8106)"><stop stop-color="#fff"/><stop offset="1" stop-color="#fff" stop-opacity=".96"/></radialGradient><radialGradient id="paint1_angular" cx="0" cy="0" r="1" gradientUnits="userSpaceOnUse" gradientTransform="rotate(-134.723 15.281 9.483) scale(12.3867 11.8106)"><stop stop-color="#fff"/><stop offset="1" stop-color="#fff" stop-opacity=".96"/></radialGradient></defs></svg>