<svg width="68" height="68" fill="none" xmlns="http://www.w3.org/2000/svg"><path d="M64.876 34.002l2.983-7.78a2.128 2.128 0 0 0-.646-2.415l-6.468-5.244-1.309-8.231a2.124 2.124 0 0 0-1.768-1.764l-8.232-1.309-5.24-6.472a2.128 2.128 0 0 0-2.41-.646l-7.785 2.987L26.219.145a2.12 2.12 0 0 0-2.41.646l-5.244 6.472-8.232 1.31a2.13 2.13 0 0 0-1.764 1.763L7.26 18.567.788 23.812a2.126 2.126 0 0 0-.646 2.41l2.983 7.78-2.983 7.782a2.12 2.12 0 0 0 .646 2.41l6.472 5.239 1.31 8.232c.144.91.854 1.623 1.763 1.768l8.232 1.309 5.244 6.468a2.115 2.115 0 0 0 2.414.646l7.778-2.98 7.781 2.984a2.119 2.119 0 0 0 2.414-.65l5.24-6.468 8.232-1.31a2.129 2.129 0 0 0 1.768-1.767l1.309-8.232 6.468-5.24a2.121 2.121 0 0 0 .646-2.41l-2.983-7.78z" fill="#F44336"/></svg>