<svg width="68" height="68" viewBox="0 0 68 68" fill="none" xmlns="http://www.w3.org/2000/svg">
<path d="M64.8759 34.0024L67.8593 26.2211C68.1865 25.3627 67.9315 24.3895 67.2133 23.8073L60.745 18.5632L59.436 10.3315C59.2915 9.42206 58.5776 8.71236 57.6681 8.56787L49.4361 7.25896L44.196 0.786654C43.618 0.0684537 42.6235 -0.186529 41.7863 0.140699L34.0006 3.12824L26.219 0.144948C25.3563 -0.186529 24.3916 0.0769531 23.8094 0.790904L18.565 7.26321L10.333 8.57212C9.42778 8.71661 8.7138 9.43056 8.56931 10.3357L7.26035 18.5674L0.78779 23.8116C0.0738114 24.3895 -0.185431 25.3627 0.141809 26.2211L3.12522 34.0024L0.141809 41.7836C-0.189681 42.642 0.0738114 43.6152 0.78779 44.1932L7.26035 49.433L8.56931 57.6647C8.7138 58.5742 9.42353 59.2881 10.333 59.4326L18.565 60.7415L23.8094 67.2096C24.3916 67.932 25.3648 68.187 26.2233 67.8555L34.0006 64.8765L41.7821 67.8598C42.0286 67.9533 42.2836 68 42.5428 68C43.1675 68 43.7838 67.7238 44.196 67.2096L49.4361 60.7415L57.6681 59.4326C58.5776 59.2881 59.2915 58.5742 59.436 57.6647L60.745 49.433L67.2133 44.1932C67.9315 43.6109 68.1865 42.642 67.8593 41.7836L64.8759 34.0024Z" fill="#F44336"/>
</svg>
